<svg width="156" height="168" viewBox="0 0 156 168" fill="none" xmlns="http://www.w3.org/2000/svg">
<path d="M75.3517 159.704C90.7544 158.936 103.042 153.697 109.799 139.208C115.884 126.158 112.063 106.386 101.578 96.9221C100.59 96.0298 99.2573 95.3079 99.692 93.6745C99.8176 93.478 99.887 93.2635 99.9667 93.2597C114.05 92.5736 128.282 90.4963 141.035 99.3018C160.193 112.53 160.485 139.434 144.669 155.06C136.181 163.446 125.893 167.227 114.136 167.237C78.3081 167.269 42.4801 167.23 6.652 167.22C0.614755 167.218 0.0644207 166.688 0.0536511 160.625C0.0372464 151.392 -0.0677518 142.158 0.0702886 132.927C0.331336 115.471 5.93715 100.123 18.3645 87.5353C24.6599 81.1589 32.5533 77.1415 40.18 72.7617C61.0659 60.7675 81.9703 48.8039 102.96 36.9922C115.568 29.897 114.361 16.1085 105.487 9.95745C103.396 8.50841 101.097 7.72819 98.5253 7.72627C70.5521 7.70536 42.5787 7.7012 14.6058 7.59874C11.4277 7.58709 10.2425 8.66509 10.2982 11.9251C10.6278 31.2076 9.95604 50.4996 10.8181 69.7791C10.8857 71.2922 10.8649 72.8104 10.8484 74.3258C10.82 76.9258 10.7016 79.4878 7.0957 79.4887C3.59339 79.4894 3.25988 77.1684 3.26717 74.427C3.30601 59.8202 3.28828 45.2133 3.29002 30.6065C3.29103 22.2007 3.40851 13.7925 3.24011 5.39008C3.16371 1.57788 4.82004 0.246506 8.42077 0.24986C44.2487 0.28322 80.0975 -0.483658 115.897 0.515698C139.09 1.16312 153.827 20.3261 151.97 42.1435C150.877 54.9818 144.339 64.3326 133.348 70.5748C111.807 82.8082 90.2077 94.9393 68.5397 106.946C57.7774 112.909 52.2607 121.754 52.3422 134.081C52.3878 140.971 52.5775 147.869 52.3108 154.748C52.1525 158.832 53.7074 160.028 57.5925 159.841C63.3671 159.564 69.1631 159.733 75.3517 159.704Z" fill="white"/>
</svg>
