<svg width="548" height="168" viewBox="0 0 548 168" fill="none" xmlns="http://www.w3.org/2000/svg">
<path d="M75.3517 159.704C90.7544 158.936 103.042 153.697 109.799 139.208C115.884 126.158 112.063 106.386 101.578 96.9221C100.59 96.0298 99.2573 95.3079 99.692 93.6745C99.8176 93.478 99.887 93.2635 99.9667 93.2597C114.05 92.5736 128.282 90.4963 141.035 99.3018C160.193 112.53 160.485 139.434 144.669 155.06C136.181 163.446 125.893 167.227 114.136 167.237C78.3081 167.269 42.4801 167.23 6.652 167.22C0.614755 167.218 0.0644207 166.688 0.0536511 160.625C0.0372464 151.392 -0.0677518 142.158 0.0702886 132.927C0.331336 115.471 5.93715 100.123 18.3645 87.5353C24.6599 81.1589 32.5533 77.1415 40.18 72.7617C61.0659 60.7675 81.9703 48.8039 102.96 36.9922C115.568 29.897 114.361 16.1085 105.487 9.95745C103.396 8.50841 101.097 7.72819 98.5253 7.72627C70.5521 7.70536 42.5787 7.7012 14.6058 7.59874C11.4277 7.58709 10.2425 8.66509 10.2982 11.9251C10.6278 31.2076 9.95604 50.4996 10.8181 69.7791C10.8857 71.2922 10.8649 72.8104 10.8484 74.3258C10.82 76.9258 10.7016 79.4878 7.0957 79.4887C3.59339 79.4894 3.25988 77.1684 3.26717 74.427C3.30601 59.8202 3.28828 45.2133 3.29002 30.6065C3.29103 22.2007 3.40851 13.7925 3.24011 5.39008C3.16371 1.57788 4.82004 0.246506 8.42077 0.24986C44.2487 0.28322 80.0975 -0.483658 115.897 0.515698C139.09 1.16312 153.827 20.3261 151.97 42.1435C150.877 54.9818 144.339 64.3326 133.348 70.5748C111.807 82.8082 90.2077 94.9393 68.5397 106.946C57.7774 112.909 52.2607 121.754 52.3422 134.081C52.3878 140.971 52.5775 147.869 52.3108 154.748C52.1525 158.832 53.7074 160.028 57.5925 159.841C63.3671 159.564 69.1631 159.733 75.3517 159.704Z" fill="#1A56DB"/>
<path d="M221.23 60.6248H237.794V109.105C237.794 113.145 237.02 116.713 235.471 119.811C233.99 122.975 231.97 125.467 229.411 127.285C226.852 129.17 224.024 130.55 220.927 131.426C217.897 132.368 214.665 132.84 211.231 132.84C205.642 132.84 200.66 131.796 196.283 129.709C191.906 127.621 188.607 124.558 186.385 120.518L200.323 112.438C202.747 116.276 206.316 118.195 211.029 118.195C214.059 118.195 216.517 117.42 218.402 115.872C220.287 114.323 221.23 112.067 221.23 109.105V104.257C217.796 108.431 213.083 110.519 207.09 110.519C200.155 110.519 194.398 108.027 189.819 103.045C185.308 98.0621 183.052 92.0021 183.052 84.8648C183.052 77.7274 185.308 71.6674 189.819 66.6848C194.398 61.7021 200.155 59.2108 207.09 59.2108C213.083 59.2108 217.796 61.2981 221.23 65.4728V60.6248ZM202.747 92.4398C204.767 94.3924 207.359 95.3688 210.524 95.3688C213.689 95.3688 216.247 94.3924 218.2 92.4398C220.22 90.4198 221.23 87.8948 221.23 84.8648C221.23 81.8348 220.22 79.3434 218.2 77.3908C216.247 75.3708 213.689 74.3608 210.524 74.3608C207.359 74.3608 204.767 75.3708 202.747 77.3908C200.794 79.3434 199.818 81.8348 199.818 84.8648C199.818 87.8948 200.794 90.4198 202.747 92.4398ZM281.041 60.6248H297.807V111.125H281.041V106.479C277.607 110.519 272.826 112.539 266.699 112.539C259.966 112.539 254.31 110.014 249.731 104.964C245.22 99.8464 242.964 93.4834 242.964 85.8748C242.964 78.2661 245.22 71.9368 249.731 66.8868C254.31 61.7694 259.966 59.2108 266.699 59.2108C272.826 59.2108 277.607 61.2308 281.041 65.2708V60.6248ZM262.76 93.8538C264.713 95.8738 267.271 96.8838 270.436 96.8838C273.601 96.8838 276.159 95.8738 278.112 93.8538C280.065 91.8338 281.041 89.1741 281.041 85.8748C281.041 82.5754 280.065 79.9158 278.112 77.8958C276.159 75.8758 273.601 74.8658 270.436 74.8658C267.271 74.8658 264.713 75.8758 262.76 77.8958C260.807 79.9158 259.831 82.5754 259.831 85.8748C259.831 89.1741 260.807 91.8338 262.76 93.8538ZM336.817 76.6838H326.313V91.3288C326.313 93.5508 327.121 94.9311 328.737 95.4698C330.353 96.0084 333.046 96.1768 336.817 95.9748V111.125C326.784 112.337 319.714 111.428 315.607 108.398C311.567 105.3 309.547 99.7454 309.547 91.7328V76.6838H301.972V60.6248H309.547V51.5348L326.313 46.4848V60.6248H336.817V76.6838ZM356.606 92.0358C358.289 96.1431 362.06 98.1968 367.918 98.1968C371.554 98.1968 374.617 97.0184 377.109 94.6618L389.229 103.146C384.246 109.408 377.008 112.539 367.514 112.539C358.962 112.539 352.094 110.047 346.91 105.065C341.792 100.015 339.234 93.6518 339.234 85.9758C339.234 78.3671 341.759 72.0041 346.809 66.8868C351.859 61.7694 358.289 59.2108 366.1 59.2108C373.641 59.2108 379.869 61.7358 384.785 66.7858C389.7 71.8358 392.158 78.1651 392.158 85.7738C392.158 87.9958 391.922 90.0831 391.451 92.0358H356.606ZM356.404 80.4208H375.796C374.449 75.7074 371.284 73.3508 366.302 73.3508C361.117 73.3508 357.818 75.7074 356.404 80.4208ZM411.424 75.3708C411.424 76.3134 412.266 77.0878 413.949 77.6938C415.7 78.2998 417.787 78.8721 420.211 79.4108C422.703 79.9494 425.16 80.7238 427.584 81.7338C430.076 82.6764 432.163 84.3261 433.846 86.6828C435.597 89.0394 436.472 92.0021 436.472 95.5708C436.472 101.361 434.318 105.637 430.008 108.398C425.699 111.158 420.582 112.539 414.656 112.539C403.344 112.539 395.803 108.532 392.032 100.52L406.677 93.1468C407.957 96.8501 410.583 98.7018 414.555 98.7018C417.585 98.7018 419.1 97.7928 419.1 95.9748C419.1 95.0321 418.259 94.2578 416.575 93.6518C414.892 93.0458 412.838 92.4398 410.414 91.8338C407.99 91.2278 405.566 90.4198 403.142 89.4098C400.718 88.3998 398.664 86.7838 396.981 84.5618C395.298 82.2724 394.456 79.4781 394.456 76.1788C394.456 70.7921 396.442 66.6174 400.415 63.6548C404.388 60.6921 409.169 59.2108 414.757 59.2108C424.723 59.2108 431.658 63.1161 435.563 70.9268L421.423 77.2898C419.942 74.3944 417.855 72.9468 415.161 72.9468C412.67 72.9468 411.424 73.7548 411.424 75.3708ZM435.625 111.125L436.938 103.449L466.43 77.9968C474.173 71.5328 478.516 65.8094 479.459 60.8268C480.199 56.8541 479.526 53.7568 477.439 51.5348C475.419 49.3128 472.658 48.2018 469.157 48.2018C462.895 48.2018 457.609 51.4001 453.3 57.7968L445.826 53.0498C452.02 43.7578 460.168 39.1117 470.268 39.1117C476.193 39.1117 481.041 41.1991 484.812 45.3738C488.65 49.4811 489.963 54.8678 488.751 61.5338C488.077 65.6411 486.394 69.4118 483.701 72.8458C481.075 76.2798 477.405 80.0168 472.692 84.0568L451.381 102.035H482.893L481.378 111.125H435.625ZM523.63 59.2108C530.364 59.2108 535.986 61.7694 540.497 66.8868C545.076 71.9368 547.365 78.2661 547.365 85.8748C547.365 93.4834 545.076 99.8464 540.497 104.964C535.986 110.014 530.364 112.539 523.63 112.539C517.503 112.539 512.722 110.519 509.288 106.479V111.125H492.522V40.4248H509.288V65.2708C512.722 61.2308 517.503 59.2108 523.63 59.2108ZM512.217 93.8538C514.17 95.8738 516.729 96.8838 519.893 96.8838C523.058 96.8838 525.617 95.8738 527.569 93.8538C529.522 91.8338 530.498 89.1741 530.498 85.8748C530.498 82.5754 529.522 79.9158 527.569 77.8958C525.617 75.8758 523.058 74.8658 519.893 74.8658C516.729 74.8658 514.17 75.8758 512.217 77.8958C510.265 79.9158 509.288 82.5754 509.288 85.8748C509.288 89.1741 510.265 91.8338 512.217 93.8538Z" fill="#1A56DB"/>
</svg>
